{"title":"Dark Shadows(2012)MPEG-4[DaScubaDude]","uid":14492962,"size":1141266838,"categoryP":"video","categoryS":"movies","magnet":"?xt=urn:btih:d6510bc82c65fd4ccdec5201c93706e3bdc94dff&amp;dn=Dark+Shadows%282012%29MPEG-4%5BDaScubaDude%5D&amp;tr=udp%3A%2F%2Ftracker.leechers-paradise.org%3A6969&amp;tr=udp%3A%2F%2Fzer0day.ch%3A1337&amp;tr=udp%3A%2F%2Fopen.demonii.com%3A1337&amp;tr=udp%3A%2F%2Ftracker.coppersurfer.tk%3A6969&amp;tr=udp%3A%2F%2Fexodus.desync.com%3A6969","seeders":1,"leechers":0,"uploader":"dascuba","files":1,"time":1462127003,"description":"Dark Shadows (2012)\r\nPG-13 | 1h 53min | Comedy, Fantasy, Horror | 11 May 2012 (USA)\r\nAn imprisoned vampire, Barnabas Collins, is set free and returns to his ancestral home, where his dysfunctional descendants are in need of his protection.\r\nDirector: Tim Burton\r\nWriters: Seth Grahame-Smith (screenplay), John August (story) |\r\nStars: Johnny Depp, Michelle Pfeiffer, Eva Green \r\n\r\nGeneral\r\nComplete name                            : DarkShadowsDARK_SHADOWS_Title1.mp4\r\nFormat                                   : MPEG-4\r\nFormat profile                           : Base Media\r\nCodec ID                                 : isom (isom/iso2/avc1/mp41)\r\nFile size                                : 1.06 GiB\r\nDuration                                 : 1h 52mn\r\nOverall bit rate                         : 1 347 Kbps\r\nMovie name                               : DARK_SHADOWS\r\nWriting application                      : Lavf54.6.100\r\n\r\nVideo\r\nID                                       : 1\r\nFormat                                   : AVC\r\nFormat/Info                              : Advanced Video Codec\r\nFormat profile                           :   \r\nFormat settings, CABAC                   : No\r\nFormat settings, ReFrames                : 6 frames\r\nCodec ID                                 : avc1\r\nCodec ID/Info                            : Advanced Video Coding\r\nDuration                                 : 1h 52mn\r\nBit rate                                 : 1 212 Kbps\r\nWidth                                    : 720 pixels\r\nHeight                                   : 404 pixels\r\nDisplay aspect ratio                     : 16:9\r\nFrame rate mode                          : Constant\r\nFrame rate                               : 29.970 (30000/1001) fps\r\nColor space                              : YUV\r\nChroma subsampling                       : 4:2:0\r\nBit depth                                : 8 bits\r\nScan type                                : Progressive\r\nBits/(Pixel*Frame)                       : 0.139\r\nStream size                              : 980 MiB (90%)\r\n\r\nAudio\r\nID                                       : 2\r\nFormat                                   : AAC\r\nFormat/Info                              : Advanced Audio Codec\r\nFormat profile                           : LC\r\nCodec ID                                 : 40\r\nDuration                                 : 1h 52mn\r\nBit rate mode                            : Constant\r\nBit rate                                 : 128 Kbps\r\nChannel(s)                               : 2 channels\r\nChannel positions                        : Front: L R\r\nSampling rate                            : 44.1 KHz\r\nFrame rate                               : 43.066 fps (1024 spf)\r\nCompression mode                         : Lossy\r\nStream size                              : 103 MiB (9%)\r\nDefault                                  : Yes\r\nAlternate group                          : 1","torrent":{"xt":"urn:btih:d6510bc82c65fd4ccdec5201c93706e3bdc94dff","amp;dn":"Dark+Shadows%282012%29MPEG-4%5BDaScubaDude%5D","amp;tr":["udp%3A%2F%2Ftracker.leechers-paradise.org%3A6969","udp%3A%2F%2Fzer0day.ch%3A1337","udp%3A%2F%2Fopen.demonii.com%3A1337","udp%3A%2F%2Ftracker.coppersurfer.tk%3A6969","udp%3A%2F%2Fexodus.desync.com%3A6969"],"infoHash":"d6510bc82c65fd4ccdec5201c93706e3bdc94dff","infoHashBuffer":{"type":"Buffer","data":[214,81,11,200,44,101,253,76,205,236,82,1,201,55,6,227,189,201,77,255]},"announce":[],"urlList":[]}}